<svg xmlns="http://www.w3.org/2000/svg" fill="none" viewBox="0 0 283 64"><path fill="black" d="M141 16c-11 0-19 7-19 18s9 18 20 18c7 0 13-3 16-7l-7-5c-2 3-6 4-9 4-5 0-9-3-10-7h28v-3c0-11-8-18-19-18zm-9 15c1-4 4-7 9-7s8 3 9 7h-18zm117-15c-11 0-19 7-19 18s9 18 20 18c7 0 13-3 16-7l-7-5c-2 3-6 4-9 4-5 0-9-3-10-7h28v-3c0-11-8-18-19-18zm-9 15c1-4 4-7 9-7s8 3 9 7h-18zm-39 3c0 6 4 10 10 10 4 0 7-2 8-4l7 5c-3 5-9 7-15 7-11 0-19-7-19-18s8-18 19-18c6 0 12 3 15 8l-7 5c-1-3-4-5-8-5-6 0-10 4-10 10zm83-28v46h-9V5h9zm18 17c-11 0-19 7-19 18s9 18 20 18c7 0 13-3 16-7l-7-5c-2 3-6 4-9 4-5 0-9-3-10-7h28v-3c0-11-8-18-19-18zm-9 15c1-4 4-7 9-7s8 3 9 7h-18zm-49-15c-11 0-19 7-19 18s9 18 19 18 19-7 19-18-8-18-19-18zm0 28c-6 0-10-4-10-10s4-10 10-10 10 4 10 10-4 10-10 10zM34 2H2v28h32V2zM2 64h32V36H2v28zm34 0h32V36H36v28zM68 2H36v28h32V2z"/></svg>
